  0
SECTION
  2
HEADER
  9
$ACADVER
  1
AC1014
  9
$HANDSEED
  5
FFFF
  9
$MEASUREMENT
 70
     1
  0
ENDSEC
  0
SECTION
  2
TABLES
  0
TABLE
  2
VPORT
  5
8
330
0
100
AcDbSymbolTable
 70
     4
  0
VPORT
  5
2E
330
8
100
AcDbSymbolTableRecord
100
AcDbViewportTableRecord
  2
*ACTIVE
 70
     0
 10
0.0
 20
0.0
 11
1.0
 21
1.0
 12
210.0
 22
148.5
 13
0.0
 23
0.0
 14
10.0
 24
10.0
 15
10.0
 25
10.0
 16
0.0
 26
0.0
 36
1.0
 17
0.0
 27
0.0
 37
0.0
 40
341.0
 41
1.24
 42
50.0
 43
0.0
 44
0.0
 50
0.0
 51
0.0
 71
     0
 72
   100
 73
     1
 74
     3
 75
     0
 76
     0
 77
     0
 78
     0
  0
ENDTAB
  0
TABLE
  2
LTYPE
  5
5
330
0
100
AcDbSymbolTable
 70
     1
  0
LTYPE
  5
14
330
5
100
AcDbSymbolTableRecord
100
AcDbLinetypeTableRecord
  2
BYBLOCK
 70
     0
  3

 72
    65
 73
     0
 40
0.0
  0
LTYPE
  5
15
330
5
100
AcDbSymbolTableRecord
100
AcDbLinetypeTableRecord
  2
BYLAYER
 70
     0
  3

 72
    65
 73
     0
 40
0.0
  0
LTYPE
  5
16
330
5
100
AcDbSymbolTableRecord
100
AcDbLinetypeTableRecord
  2
CONTINUOUS
 70
     0
  3
Solid line
 72
    65
 73
     0
 40
0.0
  0
ENDTAB
  0
TABLE
  2
LAYER
  5
2
100
AcDbSymbolTable
 70
1
  0
LAYER
  5
50
100
AcDbSymbolTableRecord
100
AcDbLayerTableRecord
  2
0
 70
0
  6
CONTINUOUS
  0
ENDTAB
  0
TABLE
  2
STYLE
  5
3
330
0
100
AcDbSymbolTable
 70
     1
  0
STYLE
  5
11
330
3
100
AcDbSymbolTableRecord
100
AcDbTextStyleTableRecord
  2
STANDARD
 70
     0
 40
0.0
 41
1.0
 50
0.0
 71
     0
 42
2.5
  3
txt
  4

  0
ENDTAB
  0
TABLE
  2
VIEW
  5
6
330
0
100
AcDbSymbolTable
 70
     0
  0
ENDTAB
  0
TABLE
  2
UCS
  5
7
330
0
100
AcDbSymbolTable
 70
     0
  0
ENDTAB
  0
TABLE
  2
APPID
  5
9
330
0
100
AcDbSymbolTable
 70
     2
  0
APPID
  5
12
330
9
100
AcDbSymbolTableRecord
100
AcDbRegAppTableRecord
  2
ACAD
 70
     0
  0
ENDTAB
  0
TABLE
  2
DIMSTYLE
  5
A
330
0
100
AcDbSymbolTable
 70
     1
  0
DIMSTYLE
105
27
330
A
100
AcDbSymbolTableRecord
100
AcDbDimStyleTableRecord
  2
ISO-25
 70
     0
  3

  4

  5

  6

  7

 40
1.0
 41
2.5
 42
0.625
 43
3.75
 44
1.25
 45
0.0
 46
0.0
 47
0.0
 48
0.0
140
2.5
141
2.5
142
0.0
143
0.03937007874016
144
1.0
145
0.0
146
1.0
147
0.625
 71
     0
 72
     0
 73
     0
 74
     0
 75
     0
 76
     0
 77
     1
 78
     8
170
     0
171
     3
172
     1
173
     0
174
     0
175
     0
176
     0
177
     0
178
     0
270
     2
271
     2
272
     2
273
     2
274
     3
340
11
275
     0
280
     0
281
     0
282
     0
283
     0
284
     8
285
     0
286
     0
287
     3
288
     0
  0
ENDTAB
  0
TABLE
  2
BLOCK_RECORD
  5
1
330
0
100
AcDbSymbolTable
 70
     1
  0
BLOCK_RECORD
  5
1F
330
1
100
AcDbSymbolTableRecord
100
AcDbBlockTableRecord
  2
*MODEL_SPACE
  0
BLOCK_RECORD
  5
1B
330
1
100
AcDbSymbolTableRecord
100
AcDbBlockTableRecord
  2
*PAPER_SPACE
  0
ENDTAB
  0
ENDSEC
  0
SECTION
  2
BLOCKS
  0
BLOCK
  5
20
330
1F
100
AcDbEntity
  8
0
100
AcDbBlockBegin
  2
*MODEL_SPACE
 70
     0
 10
0.0
 20
0.0
 30
0.0
  3
*MODEL_SPACE
  1

  0
ENDBLK
  5
21
330
1F
100
AcDbEntity
  8
0
100
AcDbBlockEnd
  0
BLOCK
  5
1C
330
1B
100
AcDbEntity
 67
     1
  8
0
100
AcDbBlockBegin
  2
*PAPER_SPACE
  1

  0
ENDBLK
  5
1D
330
1B
100
AcDbEntity
 67
     1
  8
0
100
AcDbBlockEnd
  0
ENDSEC
  0
SECTION
  2
ENTITIES
  0
LWPOLYLINE
  5
100
100
AcDbEntity
  8
0
 62
3
100
AcDbPolyline
 90
2
 70
0
 10
3.842761
 20
55.780415
 30
0.0
 10
85.937648
 20
55.780415
 30
0.0
  0
SPLINE
  5
101
100
AcDbEntity
  8
0
 62
3
100
AcDbSpline
 70
0
 71
3
 72
10
 73
6
 74
4
 40
0.000000
 40
0.000000
 40
0.000000
 40
0.000000
 40
2.069146
 40
4.072349
 40
6.141496
 40
6.141496
 40
6.141496
 40
6.141496
 10
85.937648
 20
55.780415
 30
0.0
 10
86.631331
 20
55.672554
 30
0.0
 10
87.996590
 20
55.460268
 30
0.0
 10
89.570056
 20
53.886802
 30
0.0
 10
89.782341
 20
52.521543
 30
0.0
 10
89.890203
 20
51.827860
 30
0.0
 11
85.937648
 21
55.780415
 31
0.0
 11
87.935592
 21
55.242282
 31
0.0
 11
89.352070
 21
53.825803
 31
0.0
 11
89.890203
 21
51.827860
 31
0.0
  0
LWPOLYLINE
  5
102
100
AcDbEntity
  8
0
 62
3
100
AcDbPolyline
 90
2
 70
0
 10
89.890203
 20
51.827860
 30
0.0
 10
89.890203
 20
3.732969
 30
0.0
  0
SPLINE
  5
103
100
AcDbEntity
  8
0
 62
3
100
AcDbSpline
 70
0
 71
3
 72
10
 73
6
 74
4
 40
0.000000
 40
0.000000
 40
0.000000
 40
0.000000
 40
2.069146
 40
4.072349
 40
6.141495
 40
6.141495
 40
6.141495
 40
6.141495
 10
89.890203
 20
3.732969
 30
0.0
 10
89.782341
 20
3.039286
 30
0.0
 10
89.570056
 20
1.674028
 30
0.0
 10
87.996590
 20
0.100562
 30
0.0
 10
86.631331
 20
-0.111724
 30
0.0
 10
85.937648
 20
-0.219586
 30
0.0
 11
89.890203
 21
3.732969
 31
0.0
 11
89.352070
 21
1.735026
 31
0.0
 11
87.935592
 21
0.318547
 31
0.0
 11
85.937648
 21
-0.219586
 31
0.0
  0
LWPOLYLINE
  5
104
100
AcDbEntity
  8
0
 62
3
100
AcDbPolyline
 90
2
 70
0
 10
85.937648
 20
-0.219586
 30
0.0
 10
3.842761
 20
-0.219586
 30
0.0
  0
SPLINE
  5
105
100
AcDbEntity
  8
0
 62
3
100
AcDbSpline
 70
0
 71
3
 72
10
 73
6
 74
4
 40
0.000000
 40
0.000000
 40
0.000000
 40
0.000000
 40
2.069146
 40
4.072350
 40
6.141496
 40
6.141496
 40
6.141496
 40
6.141496
 10
3.842761
 20
-0.219586
 30
0.0
 10
3.149078
 20
-0.111724
 30
0.0
 10
1.783819
 20
0.100562
 30
0.0
 10
0.210353
 20
1.674027
 30
0.0
 10
-0.001933
 20
3.039286
 30
0.0
 10
-0.109794
 20
3.732969
 30
0.0
 11
3.842761
 21
-0.219586
 31
0.0
 11
1.844818
 21
0.318547
 31
0.0
 11
0.428339
 21
1.735026
 31
0.0
 11
-0.109794
 21
3.732969
 31
0.0
  0
LWPOLYLINE
  5
106
100
AcDbEntity
  8
0
 62
3
100
AcDbPolyline
 90
2
 70
0
 10
-0.109794
 20
3.732969
 30
0.0
 10
-0.109794
 20
51.827860
 30
0.0
  0
LWPOLYLINE
  5
107
100
AcDbEntity
  8
0
 62
3
100
AcDbPolyline
 90
1
 70
1
 10
3.842761
 20
55.780415
 30
0.0
  0
SPLINE
  5
108
100
AcDbEntity
  8
0
 62
3
100
AcDbSpline
 70
0
 71
3
 72
10
 73
6
 74
4
 40
0.000000
 40
0.000000
 40
0.000000
 40
0.000000
 40
2.069146
 40
4.072350
 40
6.141496
 40
6.141496
 40
6.141496
 40
6.141496
 10
-0.109794
 20
51.827860
 30
0.0
 10
-0.001933
 20
52.521543
 30
0.0
 10
0.210353
 20
53.886802
 30
0.0
 10
1.783819
 20
55.460268
 30
0.0
 10
3.149078
 20
55.672554
 30
0.0
 10
3.842761
 20
55.780415
 30
0.0
 11
-0.109794
 21
51.827860
 31
0.0
 11
0.428339
 21
53.825803
 31
0.0
 11
1.844818
 21
55.242282
 31
0.0
 11
3.842761
 21
55.780415
 31
0.0
  0
LWPOLYLINE
  5
109
100
AcDbEntity
  8
0
 62
1
100
AcDbPolyline
 90
4
 70
1
 10
76.817598
 20
44.293828
 30
0.0
 10
85.650827
 20
44.293828
 30
0.0
 10
85.650827
 20
11.261053
 30
0.0
 10
76.817598
 20
11.261053
 30
0.0
  0
SPLINE
  5
10a
100
AcDbEntity
  8
0
 62
7
100
AcDbSpline
 70
0
 71
3
 72
19
 73
15
 74
13
 40
0.000000
 40
0.000000
 40
0.000000
 40
0.000000
 40
0.842293
 40
1.659604
 40
2.501897
 40
3.344190
 40
4.161500
 40
5.003793
 40
5.846086
 40
6.663397
 40
7.505690
 40
8.347983
 40
9.165294
 40
10.007587
 40
10.007587
 40
10.007587
 40
10.007587
 10
87.689322
 20
3.590645
 30
0.0
 10
87.645046
 20
3.306663
 30
0.0
 10
87.557806
 20
2.747123
 30
0.0
 10
86.916465
 20
2.131115
 30
0.0
 10
86.079864
 20
1.902865
 30
0.0
 10
85.234479
 20
2.131115
 30
0.0
 10
84.618968
 20
2.747123
 30
0.0
 10
84.390549
 20
3.590645
 30
0.0
 10
84.618968
 20
4.434166
 30
0.0
 10
85.234479
 20
5.050174
 30
0.0
 10
86.079864
 20
5.278424
 30
0.0
 10
86.916465
 20
5.050174
 30
0.0
 10
87.557806
 20
4.434166
 30
0.0
 10
87.645046
 20
3.874626
 30
0.0
 10
87.689322
 20
3.590645
 30
0.0
 11
87.689322
 21
3.590645
 31
0.0
 11
87.469382
 21
2.777574
 31
0.0
 11
86.891456
 21
2.199648
 31
0.0
 11
86.078385
 21
1.979708
 31
0.0
 11
85.265315
 21
2.199648
 31
0.0
 11
84.687389
 21
2.777574
 31
0.0
 11
84.467449
 21
3.590645
 31
0.0
 11
84.687389
 21
4.403715
 31
0.0
 11
85.265315
 21
4.981641
 31
0.0
 11
86.078385
 21
5.201581
 31
0.0
 11
86.891456
 21
4.981641
 31
0.0
 11
87.469382
 21
4.403715
 31
0.0
 11
87.689322
 21
3.590645
 31
0.0
  0
LWPOLYLINE
  5
10b
100
AcDbEntity
  8
0
 62
7
100
AcDbPolyline
 90
1
 70
1
 10
87.689322
 20
3.590645
 30
0.0
  0
SPLINE
  5
10c
100
AcDbEntity
  8
0
 62
7
100
AcDbSpline
 70
0
 71
3
 72
19
 73
15
 74
13
 40
0.000000
 40
0.000000
 40
0.000000
 40
0.000000
 40
0.842293
 40
1.659604
 40
2.501897
 40
3.344190
 40
4.161501
 40
5.003794
 40
5.846088
 40
6.663398
 40
7.505692
 40
8.347985
 40
9.165296
 40
10.007589
 40
10.007589
 40
10.007589
 40
10.007589
 10
87.708735
 20
51.782898
 30
0.0
 10
87.664458
 20
51.498916
 30
0.0
 10
87.577219
 20
50.939376
 30
0.0
 10
86.935878
 20
50.323368
 30
0.0
 10
86.099276
 20
50.095118
 30
0.0
 10
85.253891
 20
50.323368
 30
0.0
 10
84.638380
 20
50.939376
 30
0.0
 10
84.409961
 20
51.782898
 30
0.0
 10
84.638380
 20
52.626420
 30
0.0
 10
85.253891
 20
53.242428
 30
0.0
 10
86.099276
 20
53.470678
 30
0.0
 10
86.935878
 20
53.242428
 30
0.0
 10
87.577219
 20
52.626420
 30
0.0
 10
87.664458
 20
52.066880
 30
0.0
 10
87.708735
 20
51.782898
 30
0.0
 11
87.708735
 21
51.782898
 31
0.0
 11
87.488795
 21
50.969827
 31
0.0
 11
86.910869
 21
50.391901
 31
0.0
 11
86.097798
 21
50.171961
 31
0.0
 11
85.284727
 21
50.391901
 31
0.0
 11
84.706801
 21
50.969827
 31
0.0
 11
84.486861
 21
51.782898
 31
0.0
 11
84.706801
 21
52.595969
 31
0.0
 11
85.284727
 21
53.173895
 31
0.0
 11
86.097798
 21
53.393835
 31
0.0
 11
86.910869
 21
53.173895
 31
0.0
 11
87.488795
 21
52.595969
 31
0.0
 11
87.708735
 21
51.782898
 31
0.0
  0
LWPOLYLINE
  5
10d
100
AcDbEntity
  8
0
 62
7
100
AcDbPolyline
 90
1
 70
1
 10
87.708735
 20
51.782898
 30
0.0
  0
SPLINE
  5
10e
100
AcDbEntity
  8
0
 62
7
100
AcDbSpline
 70
0
 71
3
 72
25
 73
21
 74
19
 40
0.000000
 40
0.000000
 40
0.000000
 40
0.000000
 40
0.842293
 40
1.659604
 40
2.501897
 40
3.344191
 40
4.161502
 40
5.003795
 40
5.425498
 40
5.843711
 40
6.265414
 40
6.687117
 40
7.105330
 40
7.527033
 40
7.948736
 40
8.366949
 40
8.788652
 40
9.210355
 40
9.628568
 40
10.050271
 40
10.050271
 40
10.050271
 40
10.050271
 10
5.376260
 20
51.744080
 30
0.0
 10
5.331984
 20
51.460097
 30
0.0
 10
5.244743
 20
50.900554
 30
0.0
 10
4.603408
 20
50.284563
 30
0.0
 10
3.766784
 20
50.056246
 30
0.0
 10
2.921479
 20
50.284747
 30
0.0
 10
2.305675
 20
50.899836
 30
0.0
 10
2.116584
 20
51.604475
 30
0.0
 10
2.191571
 20
52.165639
 30
0.0
 10
2.354179
 20
52.558806
 30
0.0
 10
2.613067
 20
52.896331
 30
0.0
 10
2.950645
 20
53.155196
 30
0.0
 10
3.343581
 20
53.317949
 30
0.0
 10
3.765316
 20
53.373628
 30
0.0
 10
4.187093
 20
53.317950
 30
0.0
 10
4.579904
 20
53.155193
 30
0.0
 10
4.917945
 20
52.896344
 30
0.0
 10
5.175105
 20
52.558756
 30
0.0
 10
5.344133
 20
52.165825
 30
0.0
 10
5.365521
 20
51.885050
 30
0.0
 10
5.376260
 20
51.744080
 30
0.0
 11
5.376260
 21
51.744080
 31
0.0
 11
5.156320
 21
50.931009
 31
0.0
 11
4.578394
 21
50.353083
 31
0.0
 11
3.765323
 21
50.133143
 31
0.0
 11
2.952252
 21
50.353083
 31
0.0
 11
2.374326
 21
50.931009
 31
0.0
 11
2.154386
 21
51.744080
 31
0.0
 11
2.209577
 21
52.162156
 31
0.0
 11
2.369621
 21
52.548534
 31
0.0
 11
2.626218
 21
52.883185
 31
0.0
 11
2.960869
 21
53.139782
 31
0.0
 11
3.347247
 21
53.299826
 31
0.0
 11
3.765323
 21
53.355017
 31
0.0
 11
4.183399
 21
53.299826
 31
0.0
 11
4.569777
 21
53.139782
 31
0.0
 11
4.904428
 21
52.883185
 31
0.0
 11
5.161026
 21
52.548534
 31
0.0
 11
5.321069
 21
52.162156
 31
0.0
 11
5.376260
 21
51.744080
 31
0.0
  0
LWPOLYLINE
  5
10f
100
AcDbEntity
  8
0
 62
7
100
AcDbPolyline
 90
1
 70
1
 10
5.376260
 20
51.744080
 30
0.0
  0
LWPOLYLINE
  5
110
100
AcDbEntity
  8
0
 62
7
100
AcDbPolyline
 90
1
 70
1
 10
5.415078
 20
3.648869
 30
0.0
  0
LWPOLYLINE
  5
111
100
AcDbEntity
  8
0
 62
1
100
AcDbPolyline
 90
4
 70
1
 10
27.521797
 20
54.034328
 30
0.0
 10
36.061703
 20
54.034328
 30
0.0
 10
36.061703
 20
50.540729
 30
0.0
 10
27.521797
 20
50.540729
 30
0.0
  0
LWPOLYLINE
  5
112
100
AcDbEntity
  8
0
 62
1
100
AcDbPolyline
 90
4
 70
1
 10
77.786757
 20
49.355883
 30
0.0
 10
83.966111
 20
49.355883
 30
0.0
 10
83.966111
 20
45.862284
 30
0.0
 10
77.786757
 20
45.862284
 30
0.0
  0
SPLINE
  5
113
100
AcDbEntity
  8
0
 62
7
100
AcDbSpline
 70
0
 71
3
 72
19
 73
15
 74
13
 40
0.000000
 40
0.000000
 40
0.000000
 40
0.000000
 40
0.842293
 40
1.659604
 40
2.501897
 40
3.344190
 40
4.161501
 40
5.003794
 40
5.846087
 40
6.663398
 40
7.505691
 40
8.347984
 40
9.165295
 40
10.007589
 40
10.007589
 40
10.007589
 40
10.007589
 10
5.415078
 20
3.648869
 30
0.0
 10
5.370801
 20
3.364887
 30
0.0
 10
5.283562
 20
2.805347
 30
0.0
 10
4.642221
 20
2.189339
 30
0.0
 10
3.805619
 20
1.961089
 30
0.0
 10
2.960234
 20
2.189339
 30
0.0
 10
2.344722
 20
2.805347
 30
0.0
 10
2.116304
 20
3.648869
 30
0.0
 10
2.344722
 20
4.492391
 30
0.0
 10
2.960234
 20
5.108399
 30
0.0
 10
3.805619
 20
5.336648
 30
0.0
 10
4.642221
 20
5.108399
 30
0.0
 10
5.283562
 20
4.492391
 30
0.0
 10
5.370801
 20
3.932850
 30
0.0
 10
5.415078
 20
3.648869
 30
0.0
 11
5.415078
 21
3.648869
 31
0.0
 11
5.195138
 21
2.835798
 31
0.0
 11
4.617211
 21
2.257872
 31
0.0
 11
3.804141
 21
2.037932
 31
0.0
 11
2.991070
 21
2.257872
 31
0.0
 11
2.413144
 21
2.835798
 31
0.0
 11
2.193203
 21
3.648869
 31
0.0
 11
2.413144
 21
4.461939
 31
0.0
 11
2.991070
 21
5.039865
 31
0.0
 11
3.804141
 21
5.259806
 31
0.0
 11
4.617211
 21
5.039865
 31
0.0
 11
5.195138
 21
4.461939
 31
0.0
 11
5.415078
 21
3.648869
 31
0.0
  0
LWPOLYLINE
  5
114
100
AcDbEntity
  8
0
 62
7
100
AcDbPolyline
 90
2
 70
0
 10
-1.157240
 20
60.780415
 30
0.0
 10
90.937649
 20
60.780415
 30
0.0
  0
SPLINE
  5
115
100
AcDbEntity
  8
0
 62
7
100
AcDbSpline
 70
0
 71
3
 72
10
 73
6
 74
4
 40
0.000000
 40
0.000000
 40
0.000000
 40
0.000000
 40
2.069146
 40
4.072349
 40
6.141496
 40
6.141496
 40
6.141496
 40
6.141496
 10
90.937649
 20
60.780415
 30
0.0
 10
91.631332
 20
60.672553
 30
0.0
 10
92.996591
 20
60.460267
 30
0.0
 10
94.570056
 20
58.886801
 30
0.0
 10
94.782342
 20
57.521542
 30
0.0
 10
94.890204
 20
56.827859
 30
0.0
 11
90.937649
 21
60.780415
 31
0.0
 11
92.935592
 21
60.242282
 31
0.0
 11
94.352071
 21
58.825803
 31
0.0
 11
94.890204
 21
56.827859
 31
0.0
  0
LWPOLYLINE
  5
116
100
AcDbEntity
  8
0
 62
7
100
AcDbPolyline
 90
2
 70
0
 10
94.890204
 20
56.827859
 30
0.0
 10
94.890204
 20
-1.267031
 30
0.0
  0
SPLINE
  5
117
100
AcDbEntity
  8
0
 62
7
100
AcDbSpline
 70
0
 71
3
 72
10
 73
6
 74
4
 40
0.000000
 40
0.000000
 40
0.000000
 40
0.000000
 40
2.069146
 40
4.072349
 40
6.141495
 40
6.141495
 40
6.141495
 40
6.141495
 10
94.890204
 20
-1.267031
 30
0.0
 10
94.782342
 20
-1.960714
 30
0.0
 10
94.570056
 20
-3.325973
 30
0.0
 10
92.996591
 20
-4.899439
 30
0.0
 10
91.631332
 20
-5.111725
 30
0.0
 10
90.937649
 20
-5.219586
 30
0.0
 11
94.890204
 21
-1.267031
 31
0.0
 11
94.352071
 21
-3.264975
 31
0.0
 11
92.935592
 21
-4.681453
 31
0.0
 11
90.937649
 21
-5.219586
 31
0.0
  0
LWPOLYLINE
  5
118
100
AcDbEntity
  8
0
 62
7
100
AcDbPolyline
 90
2
 70
0
 10
90.937649
 20
-5.219586
 30
0.0
 10
-1.157240
 20
-5.219586
 30
0.0
  0
SPLINE
  5
119
100
AcDbEntity
  8
0
 62
7
100
AcDbSpline
 70
0
 71
3
 72
10
 73
6
 74
4
 40
0.000000
 40
0.000000
 40
0.000000
 40
0.000000
 40
2.069146
 40
4.072350
 40
6.141495
 40
6.141495
 40
6.141495
 40
6.141495
 10
-1.157240
 20
-5.219586
 30
0.0
 10
-1.850923
 20
-5.111725
 30
0.0
 10
-3.216182
 20
-4.899439
 30
0.0
 10
-4.789648
 20
-3.325973
 30
0.0
 10
-5.001934
 20
-1.960714
 30
0.0
 10
-5.109796
 20
-1.267031
 30
0.0
 11
-1.157240
 21
-5.219586
 31
0.0
 11
-3.155184
 21
-4.681453
 31
0.0
 11
-4.571663
 21
-3.264975
 31
0.0
 11
-5.109796
 21
-1.267031
 31
0.0
  0
LWPOLYLINE
  5
11a
100
AcDbEntity
  8
0
 62
7
100
AcDbPolyline
 90
2
 70
0
 10
-5.109796
 20
-1.267031
 30
0.0
 10
-5.109796
 20
56.827859
 30
0.0
  0
SPLINE
  5
11b
100
AcDbEntity
  8
0
 62
7
100
AcDbSpline
 70
0
 71
3
 72
10
 73
6
 74
4
 40
0.000000
 40
0.000000
 40
0.000000
 40
0.000000
 40
2.069146
 40
4.072350
 40
6.141496
 40
6.141496
 40
6.141496
 40
6.141496
 10
-5.109796
 20
56.827859
 30
0.0
 10
-5.001934
 20
57.521542
 30
0.0
 10
-4.789648
 20
58.886801
 30
0.0
 10
-3.216182
 20
60.460268
 30
0.0
 10
-1.850923
 20
60.672553
 30
0.0
 10
-1.157240
 20
60.780415
 30
0.0
 11
-5.109796
 21
56.827859
 31
0.0
 11
-4.571663
 21
58.825803
 31
0.0
 11
-3.155184
 21
60.242282
 31
0.0
 11
-1.157240
 21
60.780415
 31
0.0
  0
LWPOLYLINE
  5
11c
100
AcDbEntity
  8
0
 62
7
100
AcDbPolyline
 90
1
 70
1
 10
-1.157240
 20
60.780415
 30
0.0
  0
LWPOLYLINE
  5
11d
100
AcDbEntity
  8
0
 62
5
100
AcDbPolyline
 90
6
 70
0
 10
7.588873
 20
1.067488
 30
0.0
 10
7.550055
 20
3.474188
 30
0.0
 10
16.167599
 20
3.467177
 30
0.0
 10
16.167599
 20
7.181292
 30
0.0
 10
26.628984
 20
7.181292
 30
0.0
 10
26.668201
 20
1.032822
 30
0.0
  0
LWPOLYLINE
  5
11e
100
AcDbEntity
  8
0
 62
5
100
AcDbPolyline
 90
12
 70
1
 10
48.432400
 20
36.053133
 30
0.0
 10
60.318097
 20
36.104422
 30
0.0
 10
60.400441
 20
43.010083
 30
0.0
 10
71.114142
 20
43.010083
 30
0.0
 10
71.114142
 20
18.865435
 30
0.0
 10
55.198859
 20
18.865435
 30
0.0
 10
55.157288
 20
12.658492
 30
0.0
 10
52.539842
 20
12.693412
 30
0.0
 10
52.539842
 20
17.467995
 30
0.0
 10
46.464863
 20
17.429178
 30
0.0
 10
46.464863
 20
20.147055
 30
0.0
 10
48.441144
 20
20.191606
 30
0.0
  0
LWPOLYLINE
  5
11f
100
AcDbEntity
  8
0
 62
5
100
AcDbPolyline
 90
16
 70
1
 10
37.713944
 20
20.750919
 30
0.0
 10
23.290658
 20
20.750919
 30
0.0
 10
23.290658
 20
17.700900
 30
0.0
 10
13.430946
 20
17.700900
 30
0.0
 10
13.430946
 20
12.266414
 30
0.0
 10
1.009262
 20
12.266414
 30
0.0
 10
1.009262
 20
21.893220
 30
0.0
 10
-5.201580
 20
21.893220
 30
0.0
 10
-5.123945
 20
33.771455
 30
0.0
 10
3.105421
 20
33.771455
 30
0.0
 10
3.134211
 20
43.997046
 30
0.0
 10
18.158570
 20
43.955156
 30
0.0
 10
18.166732
 20
48.573015
 30
0.0
 10
29.967581
 20
48.541140
 30
0.0
 10
29.967581
 20
34.431357
 30
0.0
 10
37.713944
 20
34.411947
 30
0.0
  0
LWPOLYLINE
  5
120
100
AcDbEntity
  8
0
 62
5
100
AcDbPolyline
 90
16
 70
1
 10
36.119930
 20
47.415902
 30
0.0
 10
36.119930
 20
49.415017
 30
0.0
 10
38.859010
 20
49.418200
 30
0.0
 10
38.808808
 20
51.807010
 30
0.0
 10
42.443307
 20
51.807857
 30
0.0
 10
42.434999
 20
49.217514
 30
0.0
 10
45.646491
 20
49.219525
 30
0.0
 10
45.678844
 20
46.256577
 30
0.0
 10
47.900675
 20
46.250399
 30
0.0
 10
47.981402
 20
42.956603
 30
0.0
 10
45.702088
 20
42.946477
 30
0.0
 10
45.728776
 20
40.725025
 30
0.0
 10
35.734239
 20
40.733280
 30
0.0
 10
35.734239
 20
43.398260
 30
0.0
 10
33.771454
 20
43.398260
 30
0.0
 10
33.810406
 20
47.425366
 30
0.0
  0
LWPOLYLINE
  5
121
100
AcDbEntity
  8
0
 62
5
100
AcDbPolyline
 90
8
 70
1
 10
35.906430
 20
11.179516
 30
0.0
 10
35.906432
 20
13.741490
 30
0.0
 10
45.300331
 20
13.741490
 30
0.0
 10
45.300331
 20
5.706213
 30
0.0
 10
35.867613
 20
5.706213
 30
0.0
 10
35.867613
 20
8.035279
 30
0.0
 10
33.732637
 20
8.035277
 30
0.0
 10
33.732637
 20
11.140699
 30
0.0
  0
LWPOLYLINE
  5
122
100
AcDbEntity
  8
0
 62
5
100
AcDbPolyline
 90
4
 70
1
 10
30.510760
 20
3.221874
 30
0.0
 10
38.507220
 20
3.221874
 30
0.0
 10
38.507220
 20
1.086895
 30
0.0
 10
30.510760
 20
1.086895
 30
0.0
  0
LWPOLYLINE
  5
123
100
AcDbEntity
  8
0
 62
5
100
AcDbPolyline
 90
4
 70
1
 10
43.587903
 20
34.612312
 30
0.0
 10
46.826805
 20
34.612312
 30
0.0
 10
46.826805
 20
33.075207
 30
0.0
 10
43.587903
 20
33.075207
 30
0.0
  0
LWPOLYLINE
  5
124
100
AcDbEntity
  8
0
 62
5
100
AcDbPolyline
 90
4
 70
1
 10
43.587903
 20
27.969821
 30
0.0
 10
46.826805
 20
27.969821
 30
0.0
 10
46.826805
 20
26.432719
 30
0.0
 10
43.587903
 20
26.432719
 30
0.0
  0
LWPOLYLINE
  5
125
100
AcDbEntity
  8
0
 62
6
100
AcDbPolyline
 90
4
 70
1
 10
-5.201580
 20
33.810274
 30
0.0
 10
-0.077635
 20
33.810274
 30
0.0
 10
-0.077635
 20
21.893220
 30
0.0
 10
-5.201580
 20
21.893220
 30
0.0
  0
LWPOLYLINE
  5
126
100
AcDbEntity
  8
0
 62
3
100
AcDbPolyline
 90
4
 70
1
 10
5.279216
 20
41.923185
 30
0.0
 10
17.235087
 20
41.923185
 30
0.0
 10
17.235087
 20
36.449880
 30
0.0
 10
5.279216
 20
36.449880
 30
0.0
  0
SPLINE
  5
127
100
AcDbEntity
  8
0
 62
5
100
AcDbSpline
 70
0
 71
3
 72
10
 73
6
 74
4
 40
0.000000
 40
0.000000
 40
0.000000
 40
0.000000
 40
6.388360
 40
12.651667
 40
19.079377
 40
19.079377
 40
19.079377
 40
19.079377
 10
26.668201
 20
1.032822
 30
0.0
 10
24.538744
 20
1.030810
 30
0.0
 10
20.321514
 20
1.026826
 30
0.0
 10
13.961777
 20
1.057858
 30
0.0
 10
9.731441
 20
1.064250
 30
0.0
 10
7.588873
 20
1.067488
 30
0.0
 11
26.668201
 21
1.032822
 31
0.0
 11
20.279841
 21
1.033049
 31
0.0
 11
14.016569
 21
1.054120
 31
0.0
 11
7.588873
 21
1.067488
 31
0.0
  0
LWPOLYLINE
  5
128
100
AcDbEntity
  8
0
 62
3
100
AcDbPolyline
 90
4
 70
1
 10
-0.155271
 20
31.636478
 30
0.0
 10
8.539908
 20
31.636478
 30
0.0
 10
8.539908
 20
23.640018
 30
0.0
 10
-0.155271
 20
23.640018
 30
0.0
  0
ENDSEC
  0
SECTION
  2
OBJECTS
  0
DICTIONARY
  5
C
330
0
100
AcDbDictionary
  3
ACAD_GROUP
350
D
  3
ACAD_MLINESTYLE
350
17
  0
DICTIONARY
  5
D
330
C
100
AcDbDictionary
  0
DICTIONARY
  5
1A
330
C
100
AcDbDictionary
  0
DICTIONARY
  5
17
330
C
100
AcDbDictionary
  3
STANDARD
350
18
  0
DICTIONARY
  5
19
330
C
100
AcDbDictionary
  0
ENDSEC
  0
EOF
