<?xml version="1.0" encoding="UTF-8" standalone="no"?>
<!-- Created with Inkscape (http://www.inkscape.org/) -->

<svg
   xmlns:dc="http://purl.org/dc/elements/1.1/"
   xmlns:cc="http://creativecommons.org/ns#"
   xmlns:rdf="http://www.w3.org/1999/02/22-rdf-syntax-ns#"
   xmlns:svg="http://www.w3.org/2000/svg"
   xmlns="http://www.w3.org/2000/svg"
   xmlns:sodipodi="http://sodipodi.sourceforge.net/DTD/sodipodi-0.dtd"
   xmlns:inkscape="http://www.inkscape.org/namespaces/inkscape"
   version="1.1"
   id="svg2"
   width="399.30295"
   height="270.44882"
   viewBox="0 0 399.30295 270.44883"
   sodipodi:docname="bus-blaster-case.svg"
   inkscape:version="0.92.3 (2405546, 2018-03-11)">
  <metadata
     id="metadata8">
    <rdf:RDF>
      <cc:Work
         rdf:about="">
        <dc:format>image/svg+xml</dc:format>
        <dc:type
           rdf:resource="http://purl.org/dc/dcmitype/StillImage" />
        <dc:title></dc:title>
      </cc:Work>
    </rdf:RDF>
  </metadata>
  <defs
     id="defs6" />
  <sodipodi:namedview
     pagecolor="#ffffff"
     bordercolor="#666666"
     borderopacity="1"
     objecttolerance="10"
     gridtolerance="10"
     guidetolerance="10"
     inkscape:pageopacity="0"
     inkscape:pageshadow="2"
     inkscape:window-width="1920"
     inkscape:window-height="1033"
     id="namedview4"
     showgrid="false"
     inkscape:zoom="1.7040094"
     inkscape:cx="35.132304"
     inkscape:cy="114.11705"
     inkscape:window-x="0"
     inkscape:window-y="0"
     inkscape:window-maximized="1"
     inkscape:current-layer="svg2"
     fit-margin-top="10"
     fit-margin-left="10"
     fit-margin-right="10"
     fit-margin-bottom="10" />
  <path
     style="opacity:1;fill:none;fill-opacity:1;stroke:#d3d7cf;stroke-width:1;stroke-linecap:round;stroke-linejoin:miter;stroke-miterlimit:4;stroke-dasharray:none;stroke-dashoffset:1.99999988;stroke-opacity:1"
     d="M 44.686617,29.397637 H 354.9665 c 8.27609,0 14.93879,6.662701 14.93879,14.938793 v 181.77596 c 0,8.27609 -6.6627,14.93879 -14.93879,14.93879 H 44.686617 c -8.276092,0 -14.938794,-6.6627 -14.938794,-14.93879 V 44.33643 c 0,-8.276092 6.662702,-14.938793 14.938794,-14.938793 z"
     id="rect817"
     inkscape:connector-curvature="0" />
  <path
     style="opacity:1;fill:none;fill-opacity:1;stroke:#f57900;stroke-width:1;stroke-linecap:round;stroke-linejoin:miter;stroke-miterlimit:4;stroke-dasharray:none;stroke-dashoffset:1.99999988;stroke-opacity:1"
     d="m 320.49702,72.811511 h 33.38543 V 197.65979 h -33.38543 z"
     id="rect819"
     inkscape:connector-curvature="0" />
  <path
     style="opacity:1;fill:none;fill-opacity:1;stroke:#000000;stroke-width:1;stroke-linecap:round;stroke-linejoin:miter;stroke-miterlimit:4;stroke-dasharray:none;stroke-dashoffset:1.99999988;stroke-opacity:1"
     d="m 361.587,226.65031 a 6.0885816,6.0885816 0 0 1 -6.08858,6.08858 6.0885816,6.0885816 0 0 1 -6.08858,-6.08858 6.0885816,6.0885816 0 0 1 6.08858,-6.08858 6.0885816,6.0885816 0 0 1 6.08858,6.08858 z"
     id="path4524"
     inkscape:connector-curvature="0" />
  <path
     style="opacity:1;fill:none;fill-opacity:1;stroke:#000000;stroke-width:1;stroke-linecap:round;stroke-linejoin:miter;stroke-miterlimit:4;stroke-dasharray:none;stroke-dashoffset:1.99999988;stroke-opacity:1"
     d="m 361.66037,44.506364 a 6.0885816,6.0885816 0 0 1 -6.08858,6.088582 6.0885816,6.0885816 0 0 1 -6.08858,-6.088582 6.0885816,6.0885816 0 0 1 6.08858,-6.088581 6.0885816,6.0885816 0 0 1 6.08858,6.088581 z"
     id="path4524-3"
     inkscape:connector-curvature="0" />
  <path
     style="opacity:1;fill:none;fill-opacity:1;stroke:#000000;stroke-width:1;stroke-linecap:round;stroke-linejoin:miter;stroke-miterlimit:4;stroke-dasharray:none;stroke-dashoffset:1.99999988;stroke-opacity:1"
     d="m 50.482519,44.653078 a 6.0885816,6.0885816 0 0 1 -6.088582,6.088581 6.0885816,6.0885816 0 0 1 -6.088582,-6.088581 6.0885816,6.0885816 0 0 1 6.088582,-6.088582 6.0885816,6.0885816 0 0 1 6.088582,6.088582 z"
     id="path4524-6"
     inkscape:connector-curvature="0" />
  <path
     style="opacity:1;fill:none;fill-opacity:1;stroke:#000000;stroke-width:1;stroke-linecap:round;stroke-linejoin:miter;stroke-miterlimit:4;stroke-dasharray:none;stroke-dashoffset:1.99999988;stroke-opacity:1"
     d="m 50.629231,226.43025 a 6.0885816,6.0885816 0 0 1 -6.088582,6.08858 6.0885816,6.0885816 0 0 1 -6.088582,-6.08858 6.0885816,6.0885816 0 0 1 6.088582,-6.08858 6.0885816,6.0885816 0 0 1 6.088582,6.08858 z"
     id="path4524-7"
     inkscape:connector-curvature="0" />
  <path
     style="opacity:1;fill:none;fill-opacity:1;stroke:#f57900;stroke-width:0.99999994;stroke-linecap:round;stroke-linejoin:miter;stroke-miterlimit:4;stroke-dasharray:none;stroke-dashoffset:1.99999988;stroke-opacity:1"
     d="m 134.18218,35.997022 h 32.27681 v 13.204153 h -32.27681 z"
     id="rect4553"
     inkscape:connector-curvature="0" />
  <path
     style="opacity:1;fill:none;fill-opacity:1;stroke:#f57900;stroke-width:1;stroke-linecap:round;stroke-linejoin:miter;stroke-miterlimit:4;stroke-dasharray:none;stroke-dashoffset:1.99999988;stroke-opacity:1"
     d="m 324.15998,53.679333 h 23.35504 v 13.204153 h -23.35504 z"
     id="rect4553-3"
     inkscape:connector-curvature="0" />
  <path
     style="opacity:1;fill:none;fill-opacity:1;stroke:#000000;stroke-width:1;stroke-linecap:round;stroke-linejoin:miter;stroke-miterlimit:4;stroke-dasharray:none;stroke-dashoffset:1.99999988;stroke-opacity:1"
     d="M 25.788973,10.5 H 373.86414 c 8.27609,0 14.93879,6.662702 14.93879,14.938794 V 245.01003 c 0,8.27609 -6.6627,14.93879 -14.93879,14.93879 H 25.788973 c -8.276091,0 -14.938792,-6.6627 -14.938792,-14.93879 V 25.438794 C 10.850181,17.162702 17.512882,10.5 25.788973,10.5 Z"
     id="rect817-5"
     inkscape:connector-curvature="0" />
  <path
     style="opacity:1;fill:none;fill-opacity:1;stroke:#3465a4;stroke-width:1;stroke-linecap:round;stroke-linejoin:miter;stroke-miterlimit:4;stroke-dasharray:none;stroke-dashoffset:1.99999988;stroke-opacity:1"
     d="m 130.95599,236.31767 c -24.7461,0.0745 -47.141725,-0.13102 -72.110841,-0.13102 l -0.146712,-9.09619 32.570243,0.0265 v -14.0376 h 39.53909 z m 82.25839,-132.36022 44.92232,-0.19385 0.31122,-26.100141 h 40.49273 V 168.91882 H 238.7884 l -0.15712,23.45931 -9.89271,-0.13198 v -18.04567 l -22.96055,0.14671 V 164.0749 l 7.46941,-0.16838 z m -40.5107,57.83513 h -54.5132 v 11.52763 H 80.925427 V 193.86 H 33.977328 V 157.47522 H 10.503279 l 0.293426,-44.89411 H 41.89982 l 0.108812,-38.647903 56.784979,0.158323 0.03085,-17.453324 44.601629,0.120473 v 53.328311 l 29.27759,0.0734 z M 166.67906,61.011544 v -7.555707 l 10.35243,-0.01203 -0.18974,-9.028576 13.73669,-0.0032 -0.0314,9.790271 12.13792,-0.0076 0.12228,11.198546 8.39747,0.02335 0.30511,12.448991 -8.61473,0.03827 0.10087,8.396042 -37.77463,-0.0312 V 76.196333 h -7.4184 l 0.14722,-15.220557 z"
     id="path4662"
     inkscape:connector-curvature="0"
     sodipodi:nodetypes="cccccccccccccccccccccccccccccccccccccccccccccccccccccc" />
  <path
     style="opacity:1;fill:none;fill-opacity:1;stroke:#3465a4;stroke-width:1;stroke-linecap:round;stroke-linejoin:miter;stroke-miterlimit:4;stroke-dasharray:none;stroke-dashoffset:1.99999988;stroke-opacity:1"
     d="m 165.87213,197.96796 1e-5,-9.68305 h 35.5045 v 30.36955 h -35.65122 v -8.80277 l -8.0692,1e-5 v -11.73703 z"
     id="rect825"
     inkscape:connector-curvature="0"
     sodipodi:nodetypes="ccccccccc" />
  <path
     style="opacity:1;fill:none;fill-opacity:1;stroke:#3465a4;stroke-width:1;stroke-linecap:round;stroke-linejoin:miter;stroke-miterlimit:4;stroke-dasharray:none;stroke-dashoffset:1.99999988;stroke-opacity:1"
     d="m 145.47905,228.04409 h 30.22284 v 8.06921 h -30.22284 z"
     id="rect828"
     inkscape:connector-curvature="0" />
  <path
     style="opacity:1;fill:none;fill-opacity:1;stroke:#3465a4;stroke-width:1;stroke-linecap:round;stroke-linejoin:miter;stroke-miterlimit:4;stroke-dasharray:none;stroke-dashoffset:1.99999988;stroke-opacity:1"
     d="m 194.90447,109.40307 h 12.24152 v 5.80953 h -12.24152 z"
     id="rect4533"
     inkscape:connector-curvature="0" />
  <path
     inkscape:connector-curvature="0"
     style="opacity:1;fill:none;fill-opacity:1;stroke:#3465a4;stroke-width:1;stroke-linecap:round;stroke-linejoin:miter;stroke-miterlimit:4;stroke-dasharray:none;stroke-dashoffset:1.99999988;stroke-opacity:1"
     d="m 194.90447,134.50854 h 12.24152 v 5.80952 h -12.24152 z"
     id="rect4533-3" />
  <path
     style="opacity:1;fill:none;fill-opacity:1;stroke:#75507b;stroke-width:1;stroke-linecap:round;stroke-linejoin:miter;stroke-miterlimit:4;stroke-dasharray:none;stroke-dashoffset:1.99999988;stroke-opacity:1"
     d="m 10.50328,112.43439 h 19.36609 v 45.04083 H 10.50328 Z"
     id="rect4551"
     inkscape:connector-curvature="0" />
  <path
     style="opacity:1;fill:none;fill-opacity:1;stroke:#73d216;stroke-width:1;stroke-linecap:round;stroke-linejoin:miter;stroke-miterlimit:4;stroke-dasharray:none;stroke-dashoffset:1.99999988;stroke-opacity:1"
     d="M 50.115737,81.771422 H 95.303283 V 102.45793 H 50.115737 Z"
     id="rect4554"
     inkscape:connector-curvature="0" />
  <path
     style="opacity:1;fill:none;fill-opacity:1;stroke:#73d216;stroke-width:1;stroke-linecap:round;stroke-linejoin:miter;stroke-miterlimit:4;stroke-dasharray:none;stroke-dashoffset:1.99999988;stroke-opacity:1"
     d="m 29.575943,120.65031 h 32.863671 v 30.22284 H 29.575943 Z"
     id="rect4556"
     inkscape:connector-curvature="0" />
</svg>
